<svg width="14" height="16" viewBox="0 0 14 16" fill="none" xmlns="http://www.w3.org/2000/svg">
<path d="M11.5961 11.5959L8.06108 15.1319C7.92178 15.2713 7.75638 15.3819 7.57433 15.4573C7.39228 15.5328 7.19714 15.5716 7.00008 15.5716C6.80302 15.5716 6.60788 15.5328 6.42583 15.4573C6.24378 15.3819 6.07838 15.2713 5.93908 15.1319L2.40408 11.5959C1.80046 10.9924 1.32163 10.2758 0.994924 9.48721C0.668222 8.6986 0.500046 7.85336 0.5 6.99976C0.499954 6.14616 0.668037 5.30091 0.994654 4.51226C1.32127 3.72362 1.80002 3.00703 2.40358 2.40341C3.00713 1.79979 3.72367 1.32096 4.51228 0.994253C5.30089 0.667551 6.14612 0.499375 6.99973 0.499329C7.85333 0.499282 8.69858 0.667366 9.48723 0.993982C10.2759 1.3206 10.9925 1.79935 11.5961 2.40291C12.1998 3.0065 12.6786 3.72309 13.0053 4.51177C13.332 5.30044 13.5002 6.14574 13.5002 6.99941C13.5002 7.85307 13.332 8.69838 13.0053 9.48705C12.6786 10.2757 12.1998 10.9923 11.5961 11.5959ZM10.5361 3.46391C9.59827 2.5261 8.32634 1.99825 7.00008 1.99825C5.67382 1.99825 4.40189 2.5251 3.46408 3.46291C2.52627 4.40071 1.99942 5.67265 1.99942 6.99891C1.99942 8.32517 2.52627 9.5971 3.46408 10.5349L7.00008 14.0699L10.5361 10.5359C11.0005 10.0716 11.3689 9.52034 11.6203 8.91363C11.8716 8.30692 12.001 7.65663 12.001 6.99991C12.001 6.34319 11.8716 5.6929 11.6203 5.08619C11.3689 4.47947 11.0005 3.92822 10.5361 3.46391ZM7.00008 8.99991C6.73374 9.00593 6.46888 8.95868 6.22105 8.86094C5.97323 8.76319 5.74743 8.61692 5.55691 8.43071C5.36639 8.24449 5.21499 8.02209 5.11161 7.77656C5.00822 7.53104 4.95493 7.26733 4.95486 7.00092C4.9548 6.73451 5.00796 6.47078 5.11122 6.2252C5.21448 5.97962 5.36577 5.75714 5.55619 5.57083C5.74662 5.38453 5.97235 5.23814 6.22012 5.14027C6.4679 5.0424 6.73274 4.99502 6.99908 5.00091C7.52164 5.01246 8.01891 5.22813 8.38445 5.60175C8.74998 5.97536 8.95473 6.47723 8.95486 6.99992C8.95499 7.52261 8.7505 8.02458 8.38515 8.39838C8.0198 8.77217 7.52263 8.98809 7.00008 8.99991Z" fill="#0E1234"/>
</svg>
