<svg width="12" height="12" viewBox="0 0 12 12" fill="none" xmlns="http://www.w3.org/2000/svg">
<g clip-path="url(#clip0_2001_30)">
<path d="M10.2976 5.49667C10.2765 5.40658 10.2335 5.32309 10.1724 5.25359C10.1113 5.18409 10.034 5.13073 9.94741 5.09824L7.39554 4.14152L8.05179 0.860267C8.07578 0.74026 8.05997 0.615704 8.00678 0.505489C7.95358 0.395275 7.86589 0.305417 7.75701 0.249544C7.64812 0.193672 7.52399 0.174833 7.40343 0.195887C7.28288 0.21694 7.17247 0.276736 7.08897 0.366205L1.83897 5.9912C1.77581 6.05881 1.7303 6.14096 1.70647 6.23036C1.68265 6.31976 1.68124 6.41366 1.70238 6.50373C1.72352 6.59381 1.76655 6.67728 1.82766 6.74675C1.88877 6.81622 1.96608 6.86954 2.05272 6.90199L4.6046 7.8587L3.94835 11.14C3.92436 11.26 3.94016 11.3845 3.99336 11.4947C4.04656 11.6049 4.13425 11.6948 4.24313 11.7507C4.35201 11.8065 4.47614 11.8254 4.5967 11.8043C4.71726 11.7833 4.82766 11.7235 4.91116 11.634L10.1612 6.00902C10.2243 5.94141 10.2697 5.85929 10.2935 5.76992C10.3173 5.68056 10.3187 5.58671 10.2976 5.49667ZM5.43991 9.4187L5.80179 7.61027C5.82796 7.4793 5.80668 7.34329 5.74175 7.22658C5.67683 7.10987 5.57249 7.02006 5.44741 6.97324L3.23444 6.14402L6.55929 2.58152L6.19741 4.38995C6.17124 4.52092 6.19252 4.65693 6.25744 4.77364C6.32237 4.89036 6.42671 4.98016 6.55179 5.02699L8.76569 5.8562L5.43991 9.4187Z" fill="#FF3333"/>
<g clip-path="url(#clip1_2001_30)">
<path d="M10.2976 5.49667C10.2765 5.40658 10.2335 5.32309 10.1724 5.25359C10.1113 5.18409 10.034 5.13073 9.94741 5.09824L7.39554 4.14152L8.05179 0.860267C8.07578 0.74026 8.05997 0.615704 8.00678 0.505489C7.95358 0.395275 7.86589 0.305417 7.75701 0.249544C7.64812 0.193672 7.52399 0.174833 7.40343 0.195887C7.28288 0.21694 7.17247 0.276736 7.08897 0.366205L1.83897 5.9912C1.77581 6.05881 1.7303 6.14096 1.70647 6.23036C1.68265 6.31976 1.68124 6.41366 1.70238 6.50373C1.72352 6.59381 1.76655 6.67728 1.82766 6.74675C1.88877 6.81622 1.96608 6.86954 2.05272 6.90199L4.6046 7.8587L3.94835 11.14C3.92436 11.26 3.94016 11.3845 3.99336 11.4947C4.04656 11.6049 4.13425 11.6948 4.24313 11.7507C4.35201 11.8065 4.47614 11.8254 4.5967 11.8043C4.71726 11.7833 4.82766 11.7235 4.91116 11.634L10.1612 6.00902C10.2243 5.94141 10.2697 5.85929 10.2935 5.76992C10.3173 5.68056 10.3187 5.58671 10.2976 5.49667ZM5.43991 9.4187L5.80179 7.61027C5.82796 7.4793 5.80668 7.34329 5.74175 7.22658C5.67683 7.10987 5.57249 7.02006 5.44741 6.97324L3.23444 6.14402L6.55929 2.58152L6.19741 4.38995C6.17124 4.52092 6.19252 4.65693 6.25744 4.77364C6.32237 4.89036 6.42671 4.98016 6.55179 5.02699L8.76569 5.8562L5.43991 9.4187Z" fill="#FF3333"/>
<path d="M10.1724 5.25359C10.2335 5.32309 10.2765 5.40658 10.2976 5.49667C10.3187 5.58671 10.3173 5.68056 10.2935 5.76992C10.2697 5.85929 10.2243 5.94141 10.1612 6.00902L4.91116 11.634C4.82766 11.7235 4.71726 11.7833 4.5967 11.8043C4.47614 11.8254 4.35201 11.8066 4.24313 11.7507C4.13425 11.6948 4.04656 11.6049 3.99336 11.4947C3.94016 11.3845 3.92436 11.26 3.94835 11.14L4.6046 7.8587L2.05272 6.90199C1.96608 6.86954 1.88877 6.81622 1.82766 6.74675C1.76655 6.67728 1.72352 6.59381 1.70238 6.50373C1.68124 6.41366 1.68265 6.31976 1.70647 6.23036C1.7303 6.14096 1.77581 6.05881 1.83897 5.9912L7.08897 0.366205C7.17247 0.276736 7.28288 0.21694 7.40343 0.195887C7.52399 0.174833 7.64812 0.193672 7.75701 0.249544C7.86589 0.305417 7.95358 0.395275 8.00678 0.505489C8.05997 0.615704 8.07578 0.74026 8.05179 0.860267L7.39554 4.14152L9.94741 5.09824C10.034 5.13073 10.1113 5.18409 10.1724 5.25359Z" fill="#FF3333"/>
</g>
</g>
<defs>
<clipPath id="clip0_2001_30">
<rect width="12" height="12" fill="white"/>
</clipPath>
<clipPath id="clip1_2001_30">
<rect width="12" height="12" fill="white"/>
</clipPath>
</defs>
</svg>
